<mxfile host="app.diagrams.net" modified="2023-04-17T06:52:10.363Z" agent="Mozilla/5.0 (X11; Ubuntu; Linux x86_64; rv:109.0) Gecko/20100101 Firefox/111.0" etag="jagp6Q56aeUlJ3qVDr3d" version="21.1.7" type="device">
  <diagram id="AsYd0WJRW-0fLdp6mOZr" name="Page-1">
    <mxGraphModel dx="1600" dy="795" grid="1" gridSize="10" guides="1" tooltips="1" connect="1" arrows="1" fold="1" page="1" pageScale="1" pageWidth="850" pageHeight="1100" math="0" shadow="0">
      <root>
        <mxCell id="0" />
        <mxCell id="1" parent="0" />
        <mxCell id="y_S6ZmEoeAZEPopTI7Pl-41" value="" style="whiteSpace=wrap;html=1;aspect=fixed;" vertex="1" parent="1">
          <mxGeometry x="52.5" y="70" width="770" height="770" as="geometry" />
        </mxCell>
        <mxCell id="TMtfc7jRbom5MTQ13oTC-2" value="&lt;div&gt;User Interface&lt;/div&gt;" style="html=1;" parent="1" vertex="1">
          <mxGeometry x="372.5" y="200" width="110" height="50" as="geometry" />
        </mxCell>
        <mxCell id="TMtfc7jRbom5MTQ13oTC-3" value="User" style="shape=umlLifeline;participant=umlActor;perimeter=lifelinePerimeter;whiteSpace=wrap;html=1;container=1;collapsible=0;recursiveResize=0;verticalAlign=top;spacingTop=36;outlineConnect=0;" parent="1" vertex="1">
          <mxGeometry x="197.5" y="200" width="30" height="560" as="geometry" />
        </mxCell>
        <mxCell id="TMtfc7jRbom5MTQ13oTC-4" value="" style="html=1;points=[];perimeter=orthogonalPerimeter;fillColor=#000000;strokeColor=none;" parent="1" vertex="1">
          <mxGeometry x="210" y="310" width="5" height="410" as="geometry" />
        </mxCell>
        <mxCell id="TMtfc7jRbom5MTQ13oTC-10" value="" style="html=1;points=[];perimeter=orthogonalPerimeter;fillColor=#000000;strokeColor=none;" parent="1" vertex="1">
          <mxGeometry x="425" y="330" width="5" height="390" as="geometry" />
        </mxCell>
        <mxCell id="TMtfc7jRbom5MTQ13oTC-13" value="" style="endArrow=classic;html=1;" parent="1" edge="1">
          <mxGeometry width="50" height="50" relative="1" as="geometry">
            <mxPoint x="215" y="360" as="sourcePoint" />
            <mxPoint x="428" y="360" as="targetPoint" />
          </mxGeometry>
        </mxCell>
        <mxCell id="TMtfc7jRbom5MTQ13oTC-14" value="&lt;div&gt;Login Credentials&lt;/div&gt;" style="text;html=1;align=center;verticalAlign=middle;resizable=0;points=[];autosize=1;" parent="1" vertex="1">
          <mxGeometry x="245" y="340" width="120" height="30" as="geometry" />
        </mxCell>
        <mxCell id="TMtfc7jRbom5MTQ13oTC-16" value="" style="html=1;points=[];perimeter=orthogonalPerimeter;fillColor=#000000;strokeColor=none;" parent="1" vertex="1">
          <mxGeometry x="640" y="350" width="5" height="370" as="geometry" />
        </mxCell>
        <mxCell id="TMtfc7jRbom5MTQ13oTC-19" value="" style="endArrow=classic;html=1;exitX=-0.2;exitY=0.4;exitDx=0;exitDy=0;exitPerimeter=0;" parent="1" source="TMtfc7jRbom5MTQ13oTC-16" edge="1">
          <mxGeometry width="50" height="50" relative="1" as="geometry">
            <mxPoint x="400" y="470" as="sourcePoint" />
            <mxPoint x="430" y="498" as="targetPoint" />
          </mxGeometry>
        </mxCell>
        <mxCell id="TMtfc7jRbom5MTQ13oTC-20" value="View Plans / Guides" style="text;html=1;align=center;verticalAlign=middle;resizable=0;points=[];autosize=1;" parent="1" vertex="1">
          <mxGeometry x="467.5" y="475" width="130" height="30" as="geometry" />
        </mxCell>
        <mxCell id="TMtfc7jRbom5MTQ13oTC-24" value="" style="endArrow=classic;html=1;" parent="1" edge="1">
          <mxGeometry width="50" height="50" relative="1" as="geometry">
            <mxPoint x="212" y="539.5" as="sourcePoint" />
            <mxPoint x="425" y="539.5" as="targetPoint" />
          </mxGeometry>
        </mxCell>
        <mxCell id="TMtfc7jRbom5MTQ13oTC-25" value="Share Plan" style="text;html=1;strokeColor=none;fillColor=none;align=center;verticalAlign=middle;whiteSpace=wrap;rounded=0;" parent="1" vertex="1">
          <mxGeometry x="255" y="519.5" width="110" height="20" as="geometry" />
        </mxCell>
        <mxCell id="TMtfc7jRbom5MTQ13oTC-27" value="" style="endArrow=none;dashed=1;html=1;entryX=0.5;entryY=1;entryDx=0;entryDy=0;exitX=0.533;exitY=0.633;exitDx=0;exitDy=0;exitPerimeter=0;" parent="1" source="TMtfc7jRbom5MTQ13oTC-28" target="TMtfc7jRbom5MTQ13oTC-2" edge="1">
          <mxGeometry width="50" height="50" relative="1" as="geometry">
            <mxPoint x="428" y="680" as="sourcePoint" />
            <mxPoint x="562.5" y="420" as="targetPoint" />
          </mxGeometry>
        </mxCell>
        <mxCell id="TMtfc7jRbom5MTQ13oTC-28" value="" style="shape=umlDestroy;whiteSpace=wrap;html=1;strokeWidth=3;" parent="1" vertex="1">
          <mxGeometry x="410" y="750" width="30" height="30" as="geometry" />
        </mxCell>
        <mxCell id="TMtfc7jRbom5MTQ13oTC-30" value="Backend" style="html=1;" parent="1" vertex="1">
          <mxGeometry x="587.5" y="200" width="110" height="50" as="geometry" />
        </mxCell>
        <mxCell id="TMtfc7jRbom5MTQ13oTC-31" value="" style="endArrow=none;dashed=1;html=1;dashPattern=1 3;strokeWidth=2;entryX=0.5;entryY=1;entryDx=0;entryDy=0;" parent="1" source="TMtfc7jRbom5MTQ13oTC-16" target="TMtfc7jRbom5MTQ13oTC-30" edge="1">
          <mxGeometry width="50" height="50" relative="1" as="geometry">
            <mxPoint x="410" y="460" as="sourcePoint" />
            <mxPoint x="450" y="420" as="targetPoint" />
          </mxGeometry>
        </mxCell>
        <mxCell id="TMtfc7jRbom5MTQ13oTC-32" value="&lt;font style=&quot;font-size: 18px;&quot;&gt;Sequence Diagram&lt;/font&gt;" style="text;html=1;strokeColor=none;fillColor=none;align=center;verticalAlign=middle;whiteSpace=wrap;rounded=0;" parent="1" vertex="1">
          <mxGeometry x="370" y="110" width="135" height="50" as="geometry" />
        </mxCell>
        <mxCell id="TMtfc7jRbom5MTQ13oTC-29" value="" style="shape=umlDestroy;whiteSpace=wrap;html=1;strokeWidth=3;" parent="1" vertex="1">
          <mxGeometry x="197.5" y="750" width="30" height="30" as="geometry" />
        </mxCell>
        <mxCell id="y_S6ZmEoeAZEPopTI7Pl-1" value="" style="endArrow=classic;html=1;rounded=0;entryX=0.2;entryY=0.081;entryDx=0;entryDy=0;entryPerimeter=0;" edge="1" parent="1" target="TMtfc7jRbom5MTQ13oTC-16">
          <mxGeometry width="50" height="50" relative="1" as="geometry">
            <mxPoint x="430" y="380" as="sourcePoint" />
            <mxPoint x="630" y="380" as="targetPoint" />
          </mxGeometry>
        </mxCell>
        <mxCell id="y_S6ZmEoeAZEPopTI7Pl-3" value="Verify Credentials" style="text;html=1;align=center;verticalAlign=middle;resizable=0;points=[];autosize=1;strokeColor=none;fillColor=none;" vertex="1" parent="1">
          <mxGeometry x="460" y="355" width="120" height="30" as="geometry" />
        </mxCell>
        <mxCell id="y_S6ZmEoeAZEPopTI7Pl-9" value="" style="endArrow=block;dashed=1;endFill=0;endSize=12;html=1;rounded=0;exitX=0.4;exitY=0.178;exitDx=0;exitDy=0;exitPerimeter=0;" edge="1" parent="1" source="TMtfc7jRbom5MTQ13oTC-16">
          <mxGeometry width="160" relative="1" as="geometry">
            <mxPoint x="630" y="410" as="sourcePoint" />
            <mxPoint x="430" y="416" as="targetPoint" />
          </mxGeometry>
        </mxCell>
        <mxCell id="y_S6ZmEoeAZEPopTI7Pl-10" value="success" style="text;html=1;align=center;verticalAlign=middle;resizable=0;points=[];autosize=1;strokeColor=none;fillColor=none;" vertex="1" parent="1">
          <mxGeometry x="493" y="390" width="70" height="30" as="geometry" />
        </mxCell>
        <mxCell id="y_S6ZmEoeAZEPopTI7Pl-11" value="" style="endArrow=classic;html=1;rounded=0;" edge="1" parent="1" source="TMtfc7jRbom5MTQ13oTC-3">
          <mxGeometry width="50" height="50" relative="1" as="geometry">
            <mxPoint x="400" y="440" as="sourcePoint" />
            <mxPoint x="430" y="440" as="targetPoint" />
          </mxGeometry>
        </mxCell>
        <mxCell id="y_S6ZmEoeAZEPopTI7Pl-12" value="Enter Destination" style="text;html=1;align=center;verticalAlign=middle;resizable=0;points=[];autosize=1;strokeColor=none;fillColor=none;" vertex="1" parent="1">
          <mxGeometry x="250" y="420" width="110" height="30" as="geometry" />
        </mxCell>
        <mxCell id="y_S6ZmEoeAZEPopTI7Pl-15" value="" style="endArrow=classic;html=1;rounded=0;entryX=0.4;entryY=0.28;entryDx=0;entryDy=0;entryPerimeter=0;" edge="1" parent="1">
          <mxGeometry width="50" height="50" relative="1" as="geometry">
            <mxPoint x="430" y="460" as="sourcePoint" />
            <mxPoint x="642" y="460" as="targetPoint" />
          </mxGeometry>
        </mxCell>
        <mxCell id="y_S6ZmEoeAZEPopTI7Pl-16" value="Request Plans / Guides" style="text;html=1;align=center;verticalAlign=middle;resizable=0;points=[];autosize=1;strokeColor=none;fillColor=none;" vertex="1" parent="1">
          <mxGeometry x="457.5" y="440" width="150" height="30" as="geometry" />
        </mxCell>
        <mxCell id="y_S6ZmEoeAZEPopTI7Pl-25" value="" style="endArrow=classic;html=1;" edge="1" parent="1">
          <mxGeometry width="50" height="50" relative="1" as="geometry">
            <mxPoint x="427" y="559" as="sourcePoint" />
            <mxPoint x="640" y="559" as="targetPoint" />
          </mxGeometry>
        </mxCell>
        <mxCell id="y_S6ZmEoeAZEPopTI7Pl-26" value="Save Plan Details" style="text;html=1;strokeColor=none;fillColor=none;align=center;verticalAlign=middle;whiteSpace=wrap;rounded=0;" vertex="1" parent="1">
          <mxGeometry x="475" y="539.5" width="110" height="20" as="geometry" />
        </mxCell>
        <mxCell id="y_S6ZmEoeAZEPopTI7Pl-30" value="" style="endArrow=classic;html=1;" edge="1" parent="1">
          <mxGeometry width="50" height="50" relative="1" as="geometry">
            <mxPoint x="213.5" y="654.5" as="sourcePoint" />
            <mxPoint x="430" y="654.5" as="targetPoint" />
          </mxGeometry>
        </mxCell>
        <mxCell id="y_S6ZmEoeAZEPopTI7Pl-31" value="Guide Registration Details" style="text;html=1;strokeColor=none;fillColor=none;align=center;verticalAlign=middle;whiteSpace=wrap;rounded=0;" vertex="1" parent="1">
          <mxGeometry x="261.5" y="630" width="110" height="20" as="geometry" />
        </mxCell>
        <mxCell id="y_S6ZmEoeAZEPopTI7Pl-32" value="" style="endArrow=classic;html=1;" edge="1" parent="1">
          <mxGeometry width="50" height="50" relative="1" as="geometry">
            <mxPoint x="428.5" y="669" as="sourcePoint" />
            <mxPoint x="641.5" y="669" as="targetPoint" />
          </mxGeometry>
        </mxCell>
        <mxCell id="y_S6ZmEoeAZEPopTI7Pl-33" value="Save Guide Details" style="text;html=1;strokeColor=none;fillColor=none;align=center;verticalAlign=middle;whiteSpace=wrap;rounded=0;" vertex="1" parent="1">
          <mxGeometry x="476.5" y="649.5" width="110" height="20" as="geometry" />
        </mxCell>
        <mxCell id="y_S6ZmEoeAZEPopTI7Pl-35" value="" style="endArrow=block;dashed=1;endFill=0;endSize=12;html=1;rounded=0;exitX=-0.8;exitY=0.226;exitDx=0;exitDy=0;exitPerimeter=0;" edge="1" parent="1">
          <mxGeometry width="160" relative="1" as="geometry">
            <mxPoint x="636" y="596" as="sourcePoint" />
            <mxPoint x="430" y="596" as="targetPoint" />
          </mxGeometry>
        </mxCell>
        <mxCell id="y_S6ZmEoeAZEPopTI7Pl-36" value="success" style="text;html=1;align=center;verticalAlign=middle;resizable=0;points=[];autosize=1;strokeColor=none;fillColor=none;" vertex="1" parent="1">
          <mxGeometry x="493" y="570" width="70" height="30" as="geometry" />
        </mxCell>
        <mxCell id="y_S6ZmEoeAZEPopTI7Pl-37" value="" style="endArrow=block;dashed=1;endFill=0;endSize=12;html=1;rounded=0;exitX=-0.8;exitY=0.226;exitDx=0;exitDy=0;exitPerimeter=0;" edge="1" parent="1">
          <mxGeometry width="160" relative="1" as="geometry">
            <mxPoint x="636" y="706" as="sourcePoint" />
            <mxPoint x="430" y="706" as="targetPoint" />
          </mxGeometry>
        </mxCell>
        <mxCell id="y_S6ZmEoeAZEPopTI7Pl-38" value="success" style="text;html=1;align=center;verticalAlign=middle;resizable=0;points=[];autosize=1;strokeColor=none;fillColor=none;" vertex="1" parent="1">
          <mxGeometry x="493" y="680" width="70" height="30" as="geometry" />
        </mxCell>
      </root>
    </mxGraphModel>
  </diagram>
</mxfile>
